<svg width="137" height="24" viewBox="0 0 137 24" fill="none" xmlns="http://www.w3.org/2000/svg">
<g clip-path="url(#clip0_26_1632)">
<path d="M16.9656 5.50329C16.9079 8.21164 14.6324 10.3489 11.9226 10.3489H7.0618V23.0886C7.06281 23.1491 7.05176 23.2092 7.02931 23.2653C7.00687 23.3215 6.97346 23.3726 6.93104 23.4158C6.88863 23.4589 6.83805 23.4931 6.78226 23.5165C6.72647 23.5399 6.66659 23.5519 6.6061 23.5519H4.22129C4.16017 23.5529 4.09946 23.5416 4.04279 23.5187C3.98612 23.4958 3.93463 23.4617 3.89141 23.4185C3.84818 23.3753 3.81409 23.3238 3.79117 23.2671C3.76826 23.2104 3.75697 23.1497 3.758 23.0886V10.3489H0.919014C0.798886 10.3465 0.684329 10.2978 0.59937 10.2128C0.514411 10.1278 0.465651 10.0133 0.463318 9.89316V7.50987C0.465699 7.38844 0.515511 7.27277 0.602096 7.18761C0.68868 7.10244 0.80516 7.05455 0.926609 7.05417H11.959C12.8507 7.05417 13.6481 6.32658 13.6648 5.43493C13.6699 5.21485 13.6309 4.99599 13.5502 4.79117C13.4696 4.58636 13.3488 4.39973 13.1949 4.24224C13.0411 4.08475 12.8574 3.95958 12.6546 3.87407C12.4517 3.78856 12.2338 3.74444 12.0137 3.7443H7.52357C7.40212 3.74393 7.28564 3.69603 7.19906 3.61087C7.11247 3.5257 7.06266 3.41003 7.06028 3.2886V0.911387C7.06027 0.8509 7.0723 0.791016 7.09568 0.735227C7.11905 0.679439 7.1533 0.628862 7.19642 0.586446C7.23955 0.54403 7.29068 0.510623 7.34685 0.488174C7.40302 0.465725 7.46309 0.454683 7.52357 0.455691H12.0137C12.6721 0.455568 13.324 0.586753 13.9311 0.841572C14.5382 1.09639 15.0884 1.46973 15.5495 1.93974C16.0106 2.40975 16.3733 2.96699 16.6165 3.57888C16.8596 4.19076 16.9783 4.84499 16.9656 5.50329Z" fill="white"/>
<path d="M15.3159 20.719V23.0886C15.317 23.1491 15.3059 23.2092 15.2835 23.2653C15.261 23.3215 15.2276 23.3726 15.1852 23.4158C15.1428 23.4589 15.0922 23.4931 15.0364 23.5165C14.9806 23.5399 14.9207 23.5519 14.8602 23.5519H10.8258C10.7653 23.5519 10.7054 23.5399 10.6497 23.5165C10.5939 23.4931 10.5433 23.4589 10.5009 23.4158C10.4585 23.3726 10.4251 23.3215 10.4026 23.2653C10.3802 23.2092 10.3691 23.1491 10.3701 23.0886V14.1964C10.3701 14.0756 10.4181 13.9597 10.5036 13.8742C10.5891 13.7888 10.705 13.7408 10.8258 13.7408H13.2015C13.3224 13.7408 13.4383 13.7888 13.5237 13.8742C13.6092 13.9597 13.6572 14.0756 13.6572 14.1964V20.0096C13.6576 20.075 13.6839 20.1376 13.7303 20.1837C13.7767 20.2298 13.8394 20.2557 13.9048 20.2557H14.8451C14.9068 20.2536 14.9683 20.2641 15.0259 20.2866C15.0835 20.309 15.1359 20.343 15.1799 20.3863C15.224 20.4296 15.2587 20.4815 15.2821 20.5387C15.3055 20.5959 15.317 20.6572 15.3159 20.719Z" fill="white"/>
<path d="M33.8172 6.06378H24.7595V20.7828H28.1438V16.0086H33.4177C37.4962 16.0086 39.7033 14.3681 39.7033 11.0263C39.7033 8.06125 37.8532 6.06378 33.8172 6.06378ZM33.2278 13.443H28.1392V8.67188H33.2278C35.2025 8.67188 36.2552 9.36606 36.2552 11.0263C36.2552 12.6456 35.204 13.443 33.2278 13.443Z" fill="white"/>
<path d="M54.7367 20.7812H41.8056V6.06378H45.2127V18.1747H54.7367V20.7812Z" fill="white"/>
<path d="M66.5529 6.06378H62.3909L55.5767 20.7828H59.1722L60.4344 17.8967H68.5063L69.7458 20.7828H73.3413L66.5529 6.06378ZM61.5706 15.3144L64.4719 8.63087L67.3732 15.3144H61.5706Z" fill="white"/>
<path d="M87.3418 13.0861V12.9813C88.9398 12.5256 89.8223 11.5731 89.8223 9.8491C89.8223 6.88403 87.6365 6.06378 84.1033 6.06378H74.8162V20.7828H83.6674C88.2729 20.7828 90.3752 19.7726 90.3752 16.4506C90.3798 14.558 89.2815 13.5494 87.3418 13.0861ZM78.202 8.67188H84.278C85.6451 8.67188 86.5717 9.12758 86.5717 10.3959C86.5717 11.6643 85.7499 12.1397 84.278 12.1397H78.202V8.67188ZM84.3615 18.1959H78.202V14.5504H84.3615C86.0218 14.5504 86.9271 14.9499 86.9271 16.1894C86.9271 17.4288 86.3165 18.1959 84.3615 18.1959Z" fill="white"/>
<path d="M107.049 16.1985C107.049 19.3883 104.42 21.0972 99.1853 21.0972C94.0967 21.0972 91.4263 19.1833 91.4263 16.1985H94.958C95.043 17.7326 96.8096 18.5104 99.4785 18.5104C102.275 18.5104 103.454 17.7752 103.454 16.6602C103.454 15.1413 101.175 15.2932 97.1666 14.6218C93.158 13.9504 91.8881 12.7291 91.8881 10.4157C91.8881 7.99746 93.5286 5.7691 98.9332 5.7691C104.127 5.7691 106.144 7.74379 106.224 10.3534H102.943C102.822 9.30227 101.604 8.35442 98.8861 8.35442C95.8587 8.35442 95.1433 9.17467 95.1433 10.1772C95.1433 11.5656 97.5828 11.6491 100.168 12C104.231 12.5818 107.049 12.9114 107.049 16.1985Z" fill="white"/>
<path d="M112.053 19.3306C112.049 19.6792 111.942 20.0187 111.745 20.3066C111.549 20.5945 111.272 20.8179 110.949 20.9486C110.625 21.0793 110.271 21.1115 109.93 21.0411C109.588 20.9707 109.275 20.8009 109.03 20.5531C108.785 20.3052 108.619 19.9905 108.552 19.6483C108.486 19.3062 108.522 18.952 108.656 18.6304C108.79 18.3087 109.017 18.034 109.307 17.8407C109.597 17.6474 109.938 17.5443 110.286 17.5443C110.757 17.5471 111.208 17.7368 111.539 18.0718C111.87 18.4068 112.055 18.8595 112.053 19.3306Z" fill="white"/>
<path d="M117.75 6.06378H114.365V20.7812H117.75V6.06378Z" fill="white"/>
<path d="M127.381 6.06378H120.697V20.7828H127.381C131.965 20.7828 136.253 19.2896 136.253 13.4233C136.253 7.55695 131.965 6.06378 127.381 6.06378ZM127.044 18.1747H124.101V8.67188H127.044C130.554 8.67188 132.784 9.63948 132.784 13.4233C132.784 17.2071 130.554 18.1747 127.044 18.1747Z" fill="white"/>
</g>
<defs>
<clipPath id="clip0_26_1632">
<rect width="136.709" height="24" fill="white"/>
</clipPath>
</defs>
</svg>
